<svg width="64" height="64" viewBox="0 0 64 64" fill="none" xmlns="http://www.w3.org/2000/svg">
<path d="M19.3542 29.2702L24.7179 21.727C22.4884 21.3553 18.3945 21.2729 15.041 24.6271C9.7548 29.9142 7.61396 41.3358 7.16765 44.1006L20.6025 57.5381C23.021 57.331 33.7292 55.9011 44.0472 45.581C44.1568 45.3582 46.6701 43.5006 44.6152 41.4454C43.6344 40.4644 42.0109 40.4827 41.0088 41.4849C40.4986 41.9952 39.7052 42.0027 39.2056 41.503C38.706 41.0034 38.7135 40.2097 39.2237 39.6995L42.8697 36.0528C44.7226 34.1995 42.976 31.0731 40.3901 31.8241L37.405 34.38C36.8599 34.8553 36.0497 34.773 35.6017 34.2551C35.1387 33.7188 35.2377 32.907 35.7645 32.45C46.1913 23.3 44.6693 24.402 51.3772 18.1131C53.8836 16.0259 50.7308 12.334 48.261 14.4479L32.0331 29.0436C31.5611 29.4458 30.8375 29.4534 30.3729 29.0253C29.8368 28.5622 29.8245 27.895 30.1749 27.3679L41.4942 9.76738C43.1488 7.52625 39.8924 5.03716 38.1497 7.2965L21.4134 30.7082C21.0098 31.2918 20.1965 31.4257 19.6421 31.0175C19.0861 30.6443 18.9339 29.8338 19.3542 29.2702Z" fill="#3B4262"/>
</svg>
